<svg width="48" height="48" viewBox="0 0 48 48" fill="none" xmlns="http://www.w3.org/2000/svg">
<rect width="48" height="48" rx="24" fill="#2B2D42"/>
<g clip-path="url(#clip0_4_184)">
<path fill-rule="evenodd" clip-rule="evenodd" d="M30.5625 32H17.4382C16.7318 32 16.2102 31.303 16.4766 30.662C17.7128 27.698 20.6169 26 23.9999 26C27.3838 26 30.288 27.698 31.5241 30.662C31.7906 31.303 31.2689 32 30.5625 32ZM19.9167 20C19.9167 17.794 21.749 16 23.9999 16C26.2517 16 28.083 17.794 28.083 20C28.083 22.206 26.2517 24 23.9999 24C21.749 24 19.9167 22.206 19.9167 20ZM33.9557 31.636C33.2136 28.277 30.8923 25.798 27.837 24.673C29.456 23.396 30.4002 21.3309 30.0532 19.0699C29.651 16.4469 27.4236 14.348 24.7348 14.042C21.0232 13.619 17.8751 16.449 17.8751 20C17.8751 21.89 18.7693 23.574 20.1637 24.673C17.1074 25.798 14.7872 28.277 14.044 31.636C13.7745 32.857 14.779 34 16.054 34H31.9457C33.2217 34 34.2262 32.857 33.9557 31.636Z" fill="white"/>
</g>
<defs>
<clipPath id="clip0_4_184">
<rect width="20" height="20" fill="white" transform="translate(14 14)"/>
</clipPath>
</defs>
</svg>
