<svg width="32" height="32" viewBox="0 0 32 32" fill="none" xmlns="http://www.w3.org/2000/svg">
<rect width="32" height="32" rx="16" fill="black" fill-opacity="0.25"/>
<path d="M10.1667 20.1555C9.89396 20.1415 9.69879 20.1101 9.52886 20.0398C9.12048 19.8706 8.79603 19.5461 8.62687 19.1378C8.5 18.8315 8.5 18.4432 8.5 17.6666V12C8.5 11.0666 8.5 10.5998 8.68166 10.2433C8.84144 9.92972 9.09641 9.67475 9.41002 9.51497C9.76653 9.33331 10.2332 9.33331 11.1667 9.33331H20.8333C21.7667 9.33331 22.2335 9.33331 22.59 9.51497C22.9036 9.67475 23.1586 9.92972 23.3183 10.2433C23.5 10.5998 23.5 11.0666 23.5 12V17.6666C23.5 18.4432 23.5 18.8315 23.3732 19.1378C23.204 19.5461 22.8795 19.8706 22.4712 20.0398C22.3012 20.1101 22.1061 20.1415 21.8333 20.1555M13.6173 22.6666H18.3827C18.8531 22.6666 19.0883 22.6666 19.1973 22.5625C19.2918 22.4721 19.3419 22.3366 19.3322 22.1979C19.3209 22.038 19.1546 21.8518 18.8219 21.4794L16.4392 18.8117C16.2855 18.6396 16.2086 18.5535 16.12 18.5212C16.042 18.4929 15.958 18.4929 15.88 18.5212C15.7914 18.5535 15.7145 18.6396 15.5608 18.8117L13.178 21.4794C12.8454 21.8518 12.6791 22.038 12.6679 22.1979C12.6581 22.3366 12.7083 22.4721 12.8028 22.5625C12.9117 22.6666 13.1469 22.6666 13.6173 22.6666Z" stroke="white" stroke-linecap="round" stroke-linejoin="round"/>
</svg>
