<svg width="32" height="32" viewBox="0 0 32 32" fill="none" xmlns="http://www.w3.org/2000/svg">
<rect width="32" height="32" rx="16" fill="black" fill-opacity="0.25"/>
<path fill-rule="evenodd" clip-rule="evenodd" d="M15.6275 8.55336C15.7383 8.6023 15.8325 8.68238 15.8986 8.78387C15.9648 8.88537 16 9.00389 16 9.12502V22.875C16.0001 22.9962 15.9649 23.1148 15.8988 23.2163C15.8328 23.3179 15.7386 23.398 15.6278 23.447C15.5169 23.496 15.3943 23.5118 15.2747 23.4923C15.1551 23.4729 15.0437 23.4191 14.9541 23.3375L10.55 19.3334H8.29165C7.90487 19.3334 7.53394 19.1797 7.26045 18.9062C6.98696 18.6327 6.83331 18.2618 6.83331 17.875V14.125C6.83331 13.32 7.48665 12.6667 8.29165 12.6667H10.55L14.9541 8.66252C15.0438 8.58119 15.1552 8.52766 15.2747 8.50842C15.3943 8.48919 15.5168 8.50509 15.6275 8.55419V8.55336ZM14.75 10.5375L11.2125 13.7542C11.0973 13.8589 10.9473 13.9168 10.7916 13.9167H8.29165C8.23639 13.9167 8.1834 13.9386 8.14433 13.9777C8.10526 14.0168 8.08331 14.0698 8.08331 14.125V17.875C8.08331 17.99 8.17665 18.0834 8.29165 18.0834H10.7916C10.9473 18.0832 11.0973 18.1412 11.2125 18.2459L14.75 21.4625V10.5375Z" fill="white"/>
<path d="M21.5983 9.51835C21.7155 9.40131 21.8744 9.33557 22.04 9.33557C22.2056 9.33557 22.3645 9.40131 22.4816 9.51835C26.0616 13.0984 26.0616 18.9017 22.4816 22.4817C22.3632 22.5921 22.2065 22.6522 22.0445 22.6493C21.8826 22.6465 21.7281 22.5809 21.6136 22.4664C21.4991 22.3519 21.4335 22.1974 21.4307 22.0355C21.4278 21.8735 21.4879 21.7168 21.5983 21.5984C22.3336 20.8632 22.9168 19.9904 23.3147 19.0299C23.7126 18.0693 23.9175 17.0397 23.9175 16C23.9175 14.9603 23.7126 13.9307 23.3147 12.9702C22.9168 12.0096 22.3336 11.1368 21.5983 10.4017C21.4813 10.2845 21.4155 10.1256 21.4155 9.96002C21.4155 9.7944 21.4813 9.63554 21.5983 9.51835Z" fill="white"/>
<path d="M19.5358 12.4642C19.4777 12.4061 19.4088 12.3601 19.333 12.3287C19.2571 12.2972 19.1758 12.2811 19.0937 12.2811C19.0116 12.2811 18.9303 12.2972 18.8545 12.3287C18.7786 12.3601 18.7097 12.4061 18.6516 12.4642C18.5936 12.5222 18.5475 12.5912 18.5161 12.667C18.4847 12.7429 18.4685 12.8242 18.4685 12.9063C18.4685 12.9884 18.4847 13.0697 18.5161 13.1455C18.5475 13.2214 18.5936 13.2903 18.6516 13.3484C18.9998 13.6966 19.2761 14.11 19.4645 14.5649C19.653 15.0199 19.75 15.5076 19.75 16C19.75 16.4925 19.653 16.9801 19.4645 17.4351C19.2761 17.8901 18.9998 18.3035 18.6516 18.6517C18.5412 18.7702 18.4811 18.9269 18.484 19.0888C18.4868 19.2507 18.5524 19.4052 18.6669 19.5197C18.7814 19.6342 18.9359 19.6998 19.0979 19.7027C19.2598 19.7055 19.4165 19.6454 19.535 19.535C20.4726 18.5973 20.9993 17.3256 20.9993 15.9996C20.9993 14.6736 20.4734 13.4019 19.5358 12.4642Z" fill="white"/>
</svg>
